# xmcd
#
# Track frame offsets: 
#        150
#        10065
#        21588
#        33134
#        43679
#        53250
#        72117
#        81861
#        99107
#        108768
#        121464
#        134845
#        146333
#        166836
#        186374
#        198996
#        213114
#        222502
#        230336
#        249505
#        260645
#        279707
#        290257
#        307167
#
# Disc length: 4360 seconds
#
# Revision: 0
# Processed by: cddbd v1.5.2PL0 Copyright (c) Steve Scherf et al.
# Submitted via: ExactAudioCopy v1.3
#
DISCID=58110618
DTITLE=Lonnie Mack - The Complete Elektra Recordings
DYEAR=2019
DGENRE=Blues
TTITLE0=Wham
TTITLE1=I'll Keep You Happy
TTITLE2=Suzi Q
TTITLE3=Farther On Down The Road
TTITLE4=Bounce
TTITLE5=Where There's A Will There's A Way
TTITLE6=Chicken Pickin'
TTITLE7=Baby What's Wrong?
TTITLE8=Down In The Dumps
TTITLE9=Down And Out
TTITLE10=Satisfied
TTITLE11=Memphis
TTITLE12=Why
TTITLE13=Why
TTITLE14=Save Your Money
TTITLE15=Old House
TTITLE16=Too Much Trouble
TTITLE17=In The Band
TTITLE18=Let Them Talk
TTITLE19=Memphis
TTITLE20=Sweat And Tears
TTITLE21=Roberta
TTITLE22=Stay Away From My Baby
TTITLE23=She Don't Come Here Anymore
EXTD=
EXTT0=
EXTT1=
EXTT2=
EXTT3=
EXTT4=
EXTT5=
EXTT6=
EXTT7=
EXTT8=
EXTT9=
EXTT10=
EXTT11=
EXTT12=
EXTT13=
EXTT14=
EXTT15=
EXTT16=
EXTT17=
EXTT18=
EXTT19=
EXTT20=
EXTT21=
EXTT22=
EXTT23=
PLAYORDER=
